<?xml version="1.0" encoding="UTF-8"?>
<svg version="1.1" xmlns="http://www.w3.org/2000/svg" width="512" height="512">
<path d="M0 0 C5.81483842 4.54815578 10.88112482 9.86260647 16.0604248 15.1053772 C17.5727933 16.63555247 19.08740514 18.16348533 20.60205078 19.69140625 C22.62617586 21.73395639 24.63705269 23.7883918 26.64013672 25.8515625 C36.48554027 35.90798651 45.34684758 42.86537241 59.83349609 43.1418457 C61.73012016 43.15652468 63.62677415 43.1676285 65.5234375 43.17578125 C67.61849937 43.19900312 69.71355146 43.22312137 71.80859375 43.24804688 C75.07737565 43.28291453 78.34580222 43.31237898 81.61474609 43.32592773 C103.55374357 43.43440444 124.23395577 45.58054999 140.765625 61.70703125 C141.50296875 62.46371094 142.2403125 63.22039062 143 64 C144.04414062 64.99580078 144.04414062 64.99580078 145.109375 66.01171875 C149.46634043 70.44467776 152.48276227 75.26501414 155.3125 80.75 C155.63814941 81.36883057 155.96379883 81.98766113 156.29931641 82.62524414 C163.15099137 96.64748377 162.47650709 111.52367183 162.5625 126.75 C162.58641915 130.06533938 162.61469277 133.38042671 162.65428162 136.69561768 C162.67832557 138.74464113 162.69343727 140.79379687 162.69789124 142.84295654 C162.88317128 159.9107017 169.94246205 169.07411267 181.85229492 180.84985352 C182.84928122 181.82458268 183.84776111 182.79778626 184.84765625 183.76953125 C185.35371902 184.26307602 185.8597818 184.75662079 186.38117981 185.26512146 C188.4592344 187.2893079 190.53804767 189.31211929 192.63696289 191.31469727 C205.65918193 203.76923433 216.81287928 219.51993272 217.23828125 238.24609375 C217.66205859 261.61817066 212.2794837 277.92272587 196 295 C191.46880734 299.60292064 186.8458941 304.11703036 182.2121582 308.61645508 C171.46521375 319.07022618 163.18524751 328.32185477 162.84228516 343.97290039 C162.82087517 345.93111567 162.80335961 347.88937613 162.7890625 349.84765625 C162.76097768 352.00196051 162.73231312 354.15625728 162.703125 356.31054688 C162.66205185 359.67830054 162.62513047 363.04591677 162.59863281 366.41381836 C162.34733667 395.86096019 162.34733667 395.86096019 155.375 409.1875 C155.02945068 409.86039062 154.68390137 410.53328125 154.32788086 411.2265625 C151.06197645 417.32662505 146.99450148 422.21288267 142 427 C141.00613281 428.04027344 141.00613281 428.04027344 139.9921875 429.1015625 C135.58071217 433.44594314 130.76936373 436.47836063 125.3125 439.3125 C124.70204834 439.63814941 124.09159668 439.96379883 123.46264648 440.29931641 C109.40886794 447.20147862 93.93506099 446.47411167 78.6875 446.5625 C75.45020643 446.58642982 72.21317027 446.61470564 68.97602844 446.65428162 C66.97708631 446.67830316 64.9780091 446.69343286 62.97892761 446.69789124 C44.46186542 446.90401109 34.68057714 456.08307322 22.16015625 468.8828125 C21.6618782 469.39124191 21.16360016 469.89967133 20.65022278 470.42350769 C18.60523953 472.51372151 16.56241184 474.60567954 14.53442383 476.71240234 C6.34367104 485.20350459 -2.07421149 492.37658935 -13.1875 496.8125 C-14.10917969 497.19019531 -15.03085937 497.56789063 -15.98046875 497.95703125 C-32.98168313 503.82937826 -51.932806 502.6773641 -68.30859375 495.5625 C-78.65043353 490.49512032 -86.08244442 482.9703709 -94.0604248 474.8946228 C-95.5727933 473.36444753 -97.08740514 471.83651467 -98.60205078 470.30859375 C-100.62617586 468.26604361 -102.63705269 466.2116082 -104.64013672 464.1484375 C-114.48554027 454.09201349 -123.34684758 447.13462759 -137.83349609 446.8581543 C-139.73012016 446.84347532 -141.62677415 446.8323715 -143.5234375 446.82421875 C-145.61849937 446.80099688 -147.71355146 446.77687863 -149.80859375 446.75195312 C-153.07737565 446.71708547 -156.34580222 446.68762102 -159.61474609 446.67407227 C-181.55374357 446.56559556 -202.23395577 444.41945001 -218.765625 428.29296875 C-219.50296875 427.53628906 -220.2403125 426.77960938 -221 426 C-221.69609375 425.33613281 -222.3921875 424.67226563 -223.109375 423.98828125 C-227.44714117 419.57485637 -230.47966901 414.76684457 -233.3125 409.3125 C-233.63814941 408.70204834 -233.96379883 408.09159668 -234.29931641 407.46264648 C-241.20147862 393.40886794 -240.47411167 377.93506099 -240.5625 362.6875 C-240.58642982 359.45020643 -240.61470564 356.21317027 -240.65428162 352.97602844 C-240.67830316 350.97708631 -240.69343286 348.9780091 -240.69789124 346.97892761 C-240.88672652 330.01464929 -248.02531223 320.84396995 -259.85229492 309.15014648 C-260.84928122 308.17541732 -261.84776111 307.20221374 -262.84765625 306.23046875 C-263.35371902 305.73692398 -263.8597818 305.24337921 -264.38117981 304.73487854 C-266.4592344 302.7106921 -268.53804767 300.68788071 -270.63696289 298.68530273 C-283.65918193 286.23076567 -294.81287928 270.48006728 -295.23828125 251.75390625 C-295.66205859 228.38182934 -290.2794837 212.07727413 -274 195 C-269.46880734 190.39707936 -264.8458941 185.88296964 -260.2121582 181.38354492 C-249.5410636 171.00355451 -241.15524514 161.73347082 -240.8581543 146.16650391 C-240.84347532 144.26987984 -240.8323715 142.37322585 -240.82421875 140.4765625 C-240.80099688 138.38150063 -240.77687863 136.28644854 -240.75195312 134.19140625 C-240.71708547 130.92262435 -240.68762102 127.65419778 -240.67407227 124.38525391 C-240.56559556 102.44625643 -238.41945001 81.76604423 -222.29296875 65.234375 C-221.53628906 64.49703125 -220.77960938 63.7596875 -220 63 C-219.00419922 61.95585937 -219.00419922 61.95585937 -217.98828125 60.890625 C-213.57485637 56.55285883 -208.76684457 53.52033099 -203.3125 50.6875 C-202.70204834 50.36185059 -202.09159668 50.03620117 -201.46264648 49.70068359 C-187.40886794 42.79852138 -171.93506099 43.52588833 -156.6875 43.4375 C-153.45020643 43.41357018 -150.21317027 43.38529436 -146.97602844 43.34571838 C-144.97708631 43.32169684 -142.9780091 43.30656714 -140.97892761 43.30210876 C-122.46186542 43.09598891 -112.68057714 33.91692678 -100.16015625 21.1171875 C-99.6618782 20.60875809 -99.16360016 20.10032867 -98.65022278 19.57649231 C-96.60523953 17.48627849 -94.56241184 15.39432046 -92.53442383 13.28759766 C-84.34367104 4.79649541 -75.92578851 -2.37658935 -64.8125 -6.8125 C-63.89082031 -7.19019531 -62.96914062 -7.56789063 -62.01953125 -7.95703125 C-41.27249833 -15.12321209 -18.22846324 -12.06834187 0 0 Z " fill="#DF5555" transform="translate(295,11)"/>
<path d="M0 0 C4.69150889 -0.10064293 9.38235807 -0.17228117 14.07470703 -0.21972656 C15.66303481 -0.23955268 17.25129259 -0.26662221 18.83935547 -0.30175781 C37.58992776 -0.70550668 55.77674087 2.62377671 70.375 15.375 C71.93567393 16.89742212 73.47841331 18.43851156 75 20 C75.69609375 20.66386719 76.3921875 21.32773438 77.109375 22.01171875 C81.46634043 26.44467776 84.48276227 31.26501414 87.3125 36.75 C87.63814941 37.36883057 87.96379883 37.98766113 88.29931641 38.62524414 C95.15099137 52.64748377 94.47650709 67.52367183 94.5625 82.75 C94.58641915 86.06533938 94.61469277 89.38042671 94.65428162 92.69561768 C94.67832557 94.74464113 94.69343727 96.79379687 94.69789124 98.84295654 C94.88317128 115.9107017 101.94246205 125.07411267 113.85229492 136.84985352 C114.84928122 137.82458268 115.84776111 138.79778626 116.84765625 139.76953125 C117.35371902 140.26307602 117.8597818 140.75662079 118.38117981 141.26512146 C120.4592344 143.2893079 122.53804767 145.31211929 124.63696289 147.31469727 C137.65918193 159.76923433 148.81287928 175.51993272 149.23828125 194.24609375 C149.66205859 217.61817066 144.2794837 233.92272587 128 251 C123.46880734 255.60292064 118.8458941 260.11703036 114.2121582 264.61645508 C103.46521375 275.07022618 95.18524751 284.32185477 94.84228516 299.97290039 C94.82087517 301.93111567 94.80335961 303.88937613 94.7890625 305.84765625 C94.76097768 308.00196051 94.73231312 310.15625728 94.703125 312.31054688 C94.66205185 315.67830054 94.62513047 319.04591677 94.59863281 322.41381836 C94.34733667 351.86096019 94.34733667 351.86096019 87.375 365.1875 C87.02945068 365.86039062 86.68390137 366.53328125 86.32788086 367.2265625 C83.06197645 373.32662505 78.99450148 378.21288267 74 383 C73.33742188 383.69351562 72.67484375 384.38703125 71.9921875 385.1015625 C67.58071217 389.44594314 62.76936373 392.47836063 57.3125 395.3125 C56.70204834 395.63814941 56.09159668 395.96379883 55.46264648 396.29931641 C43.30476278 402.27035724 30.33733737 402.41122328 17.125 402.1875 C15.55079426 402.17240399 13.97657428 402.1587244 12.40234375 402.14648438 C8.60120095 402.11391804 4.80076494 402.06241782 1 402 C1 401.67 1 401.34 1 401 C2.03833984 400.88785156 2.03833984 400.88785156 3.09765625 400.7734375 C16.21057686 399.01122683 27.64381398 394.24728996 38 386 C38.82371094 385.38382812 39.64742188 384.76765625 40.49609375 384.1328125 C51.47670048 374.77959678 59.59960624 359.35116489 61 345 C61.16624476 341.40169602 61.20770367 337.80479256 61.24609375 334.203125 C61.27903785 332.08853762 61.3122494 329.97395438 61.34570312 327.859375 C61.39298031 324.55732099 61.43743701 321.25528312 61.47680664 317.953125 C61.51686499 314.74461918 61.56832432 311.5364436 61.62109375 308.328125 C61.6295079 307.35691711 61.63792206 306.38570923 61.64659119 305.3850708 C62.03099336 283.72874788 72.45559901 273.24541194 87.51416016 258.65454102 C104.31546462 242.35793293 116.75522612 226.17822035 117.3125 201.6875 C117.0959054 178.89693522 106.65024563 162.35321158 90.8140564 146.74986267 C88.42393733 144.40678574 86.0264515 142.07142649 83.62426758 139.74072266 C70.92588912 127.39158831 62.20981296 117.3343244 61.84228516 98.87597656 C61.82099895 96.9642289 61.80343807 95.05243712 61.7890625 93.140625 C61.7609906 91.03384644 61.73232611 88.92707571 61.703125 86.8203125 C61.66198701 83.53808851 61.62504837 80.25601017 61.59863281 76.97363281 C61.40246689 54.48219554 58.52670289 35.68091785 42 19 C29.7384172 8.24805119 16.11579598 2.83134045 0 1 C0 0.67 0 0.34 0 0 Z " fill="#C63E3E" transform="translate(363,55)"/>
<path d="M0 0 C3.52344644 1.6586188 5.79901878 3.56657308 8.546875 6.3515625 C9.39121094 7.20234375 10.23554688 8.053125 11.10546875 8.9296875 C11.97816406 9.81914062 12.85085938 10.70859375 13.75 11.625 C14.63816406 12.5221875 15.52632812 13.419375 16.44140625 14.34375 C18.63216969 16.55807004 20.81812763 18.77692435 23 21 C21.33639169 25.33910397 18.03135603 28.24027378 14.79916382 31.44134521 C14.15633725 32.08588063 13.51351068 32.73041605 12.85120451 33.39448285 C10.69247682 35.55650907 8.52667045 37.71130189 6.36083984 39.86621094 C4.81333698 41.41314977 3.26627416 42.96052891 1.71961975 44.50831604 C-2.48433824 48.71284885 -6.69444284 52.91117822 -10.90565538 57.10844326 C-15.30414446 61.49444647 -19.69698637 65.88609808 -24.09042358 70.27716064 C-31.46657309 77.64779629 -38.84620601 85.01492902 -46.22851562 92.37939453 C-53.83209606 99.96461512 -61.43357173 107.55193479 -69.03222656 115.14208984 C-69.50065942 115.60999726 -69.96909228 116.07790467 -70.45172007 116.55999109 C-72.80171238 118.90737331 -75.15166112 121.25479915 -77.50159383 123.60224104 C-96.9947534 143.0744844 -116.49503731 162.53958012 -136 182 C-139.52344644 180.3413812 -141.79901878 178.43342692 -144.546875 175.6484375 C-145.39121094 174.79765625 -146.23554688 173.946875 -147.10546875 173.0703125 C-147.97816406 172.18085938 -148.85085937 171.29140625 -149.75 170.375 C-151.08224609 169.02921875 -151.08224609 169.02921875 -152.44140625 167.65625 C-154.63216969 165.44192996 -156.81812763 163.22307565 -159 161 C-157.33639169 156.66089603 -154.03135603 153.75972622 -150.79916382 150.55865479 C-150.15633725 149.91411937 -149.51351068 149.26958395 -148.85120451 148.60551715 C-146.69247682 146.44349093 -144.52667045 144.28869811 -142.36083984 142.13378906 C-140.81333698 140.58685023 -139.26627416 139.03947109 -137.71961975 137.49168396 C-133.51566176 133.28715115 -129.30555716 129.08882178 -125.09434462 124.89155674 C-120.69585554 120.50555353 -116.30301363 116.11390192 -111.90957642 111.72283936 C-104.53342691 104.35220371 -97.15379399 96.98507098 -89.77148438 89.62060547 C-82.16790394 82.03538488 -74.56642827 74.44806521 -66.96777344 66.85791016 C-66.49934058 66.39000274 -66.03090772 65.92209533 -65.54827993 65.44000891 C-63.19828762 63.09262669 -60.84833888 60.74520085 -58.49840617 58.39775896 C-39.0052466 38.9255156 -19.50496269 19.46041988 0 0 Z " fill="#D3DAEE" transform="translate(324,165)"/>
<path d="M0 0 C16.27141957 4.29845891 27.31854913 13.81242012 38.8182373 25.45303345 C40.3306058 26.98320872 41.84521764 28.51114158 43.35986328 30.0390625 C45.38398836 32.08161264 47.39486519 34.13604805 49.39794922 36.19921875 C57.55713576 44.53328439 65.35470217 51.28574232 77.0703125 53.47265625 C77.95332031 53.64023437 78.83632813 53.8078125 79.74609375 53.98046875 C80.74189453 54.16222656 80.74189453 54.16222656 81.7578125 54.34765625 C81.7578125 54.67765625 81.7578125 55.00765625 81.7578125 55.34765625 C77.25953582 55.39766702 72.76141305 55.43366001 68.26293945 55.45751953 C66.73752009 55.46748224 65.21211934 55.48105734 63.68676758 55.49853516 C43.56267767 55.72309015 33.47306904 52.17224242 18.7578125 38.34765625 C16.81126983 36.42089969 14.89691277 34.46424754 12.98828125 32.5 C12.24791878 31.74084541 12.24791878 31.74084541 11.49259949 30.96635437 C9.46842932 28.88835413 7.44565848 26.80957219 5.44311523 24.71069336 C-3.57706697 15.27936822 -13.05384771 7.74355596 -25.5546875 3.34765625 C-26.64394531 2.95578125 -27.73320312 2.56390625 -28.85546875 2.16015625 C-29.64308594 1.89203125 -30.43070313 1.62390625 -31.2421875 1.34765625 C-23.7492719 -3.64762082 -8.64931075 -1.61012906 0 0 Z " fill="#C73E3E" transform="translate(272.2421875,0.65234375)"/>
<path d="M0 0 C1.01938156 0.00424484 1.01938156 0.00424484 2.05935669 0.00857544 C4.20902858 0.01968286 6.35826864 0.04476859 8.5078125 0.0703125 C9.97395227 0.08035455 11.44009864 0.08947825 12.90625 0.09765625 C16.48190881 0.11959091 20.05731844 0.15405436 23.6328125 0.1953125 C22.29944383 2.86204983 21.04622 2.98071443 18.3203125 4.1328125 C9.65253116 8.41814417 3.303488 15.46271138 -3.38963318 22.28396606 C-4.88343707 23.80576298 -6.38065177 25.32414775 -7.87817383 26.84228516 C-9.87616405 28.86815505 -11.85784054 30.90828195 -13.83081055 32.95849609 C-21.39028214 40.72078042 -29.41661077 46.96116128 -39.5546875 51.0078125 C-40.47636719 51.38550781 -41.39804687 51.76320313 -42.34765625 52.15234375 C-50.32098781 54.9063923 -57.14990491 55.48036343 -65.5546875 55.3828125 C-66.62138672 55.38216797 -67.68808594 55.38152344 -68.78710938 55.38085938 C-73.4685281 55.35450993 -77.78600188 55.2340185 -82.3671875 54.1953125 C-78.38287095 51.53910147 -74.15659409 50.48748807 -69.59375 49.09765625 C-56.6663636 43.91697576 -47.11380214 33.380903 -37.6796875 23.5703125 C-14.82582074 -0.12252744 -14.82582074 -0.12252744 0 0 Z " fill="#C63E3E" transform="translate(321.3671875,456.8046875)"/>
<path d="M0 0 C10.23 0 20.46 0 31 0 C31 10.23 31 20.46 31 31 C20.77 31 10.54 31 0 31 C0 20.77 0 10.54 0 0 Z " fill="#D3DBEF" transform="translate(321,305)"/>
<path d="M0 0 C10.23 0 20.46 0 31 0 C31 10.23 31 20.46 31 31 C20.77 31 10.54 31 0 31 C0 20.77 0 10.54 0 0 Z " fill="#D3DBEF" transform="translate(160,176)"/>
</svg>
